# xmcd
#
# Track frame offsets:
#	150
#	26958
#	56819
#	90705
#	111350
#	140373
#	159957
#	183856
#	205316
#	230744
#	261611
#	287436
#	310864
#
# Disc length: 4436 seconds
#
# Revision: 1
# Processed by: cddbd v1.5.2PL0 Copyright (c) Steve Scherf et al.
# Submitted via: EZCDAudioConverter 2.1.7.1
#
DISCID=bf11520d
DTITLE=V/A - Shapes: Rectangles 2/2
DYEAR=2014
DGENRE=
TTITLE0=Zed Bias - Lucid Dreams
TTITLE1=Harleighblu - Love Like This [Titeknots Remix]
TTITLE2=Peshay - Seville
TTITLE3=Quantic and Alice Russell With The Combo Bárbaro - Magdalena [Hint Remix
TTITLE3=]
TTITLE4=Drumagick - Sunday Morning
TTITLE5=Yannah Valdevit - Tactic
TTITLE6=Titeknots - Triangle Tracks
TTITLE7=Belleruche - Henbane [Walter Ego Remix]
TTITLE8=Hidden Orchestra - Vorka [DC Breaks Mix]
TTITLE9=Mark De Clive-Lowe - Get Started [A-Sides Remix]
TTITLE10=Wrongtom Meets Deemas J - Jump+Move+Rock [FBR Remix]
TTITLE11=Sleepin' Giantz - Raving Bully [Madd Again! Remix]
TTITLE12=Kalbata - SUS
EXTD=
EXTT0=
EXTT1=
EXTT2=
EXTT3=
EXTT4=
EXTT5=
EXTT6=
EXTT7=
EXTT8=
EXTT9=
EXTT10=
EXTT11=
EXTT12=
PLAYORDER=
